{
	"asset":{
		"generator":"Khronos glTF Blender I/O v4.1.62",
		"version":"2.0"
	},
	"scene":0,
	"scenes":[
		{
			"name":"Scene",
			"nodes":[
				0,
				1,
				2
			]
		}
	],
	"nodes":[
		{
			"mesh":0,
			"name":"Sphere"
		},
		{
			"mesh":1,
			"name":"Sphere.001"
		},
		{
			"mesh":2,
			"name":"Sphere.002"
		}
	],
	"materials":[
		{
			"doubleSided":true,
			"name":"Material.009",
			"pbrMetallicRoughness":{
				"baseColorFactor":[
					0.800000011920929,
					0.800000011920929,
					0.800000011920929,
					1
				],
				"metallicFactor":0,
				"roughnessFactor":0.5
			}
		},
		{
			"doubleSided":true,
			"name":"Material.005",
			"pbrMetallicRoughness":{
				"baseColorFactor":[
					0.052859846502542496,
					0.13563328981399536,
					0.6938720345497131,
					1
				],
				"metallicFactor":0,
				"roughnessFactor":0.5
			}
		},
		{
			"doubleSided":true,
			"name":"Material",
			"pbrMetallicRoughness":{
				"baseColorFactor":[
					0.8549879193305969,
					0.0015171816339716315,
					0.8879232406616211,
					1
				],
				"metallicFactor":0,
				"roughnessFactor":0.5
			}
		}
	],
	"meshes":[
		{
			"name":"Sphere",
			"primitives":[
				{
					"attributes":{
						"POSITION":0,
						"NORMAL":1,
						"TEXCOORD_0":2
					},
					"indices":3,
					"material":0
				}
			]
		},
		{
			"name":"Sphere.001",
			"primitives":[
				{
					"attributes":{
						"POSITION":4,
						"NORMAL":5,
						"TEXCOORD_0":6
					},
					"indices":7,
					"material":1
				}
			]
		},
		{
			"name":"Sphere.002",
			"primitives":[
				{
					"attributes":{
						"POSITION":8,
						"NORMAL":9,
						"TEXCOORD_0":10
					},
					"indices":11,
					"material":2
				}
			]
		}
	],
	"accessors":[
		{
			"bufferView":0,
			"componentType":5126,
			"count":244608,
			"max":[
				0.7506577968597412,
				2.5868489742279053,
				0.67017662525177
			],
			"min":[
				-0.8383452892303467,
				-1.7226557731628418,
				-0.7894451022148132
			],
			"type":"VEC3"
		},
		{
			"bufferView":1,
			"componentType":5126,
			"count":244608,
			"type":"VEC3"
		},
		{
			"bufferView":2,
			"componentType":5126,
			"count":244608,
			"type":"VEC2"
		},
		{
			"bufferView":3,
			"componentType":5125,
			"count":1105920,
			"type":"SCALAR"
		},
		{
			"bufferView":4,
			"componentType":5126,
			"count":417,
			"max":[
				0.9545258283615112,
				2.8013322353363037,
				0.9671971201896667
			],
			"min":[
				-0.9915798902511597,
				0.5137983560562134,
				-0.9789090752601624
			],
			"type":"VEC3"
		},
		{
			"bufferView":5,
			"componentType":5126,
			"count":417,
			"type":"VEC3"
		},
		{
			"bufferView":6,
			"componentType":5126,
			"count":417,
			"type":"VEC2"
		},
		{
			"bufferView":7,
			"componentType":5123,
			"count":2016,
			"type":"SCALAR"
		},
		{
			"bufferView":8,
			"componentType":5126,
			"count":1086,
			"max":[
				0.9814726114273071,
				0.5288394689559937,
				0.9941436052322388
			],
			"min":[
				-1.0185261964797974,
				-1.8145790100097656,
				-1.0058557987213135
			],
			"type":"VEC3"
		},
		{
			"bufferView":9,
			"componentType":5126,
			"count":1086,
			"type":"VEC3"
		},
		{
			"bufferView":10,
			"componentType":5126,
			"count":1086,
			"type":"VEC2"
		},
		{
			"bufferView":11,
			"componentType":5123,
			"count":4224,
			"type":"SCALAR"
		}
	],
	"bufferViews":[
		{
			"buffer":0,
			"byteLength":2935296,
			"byteOffset":0,
			"target":34962
		},
		{
			"buffer":0,
			"byteLength":2935296,
			"byteOffset":2935296,
			"target":34962
		},
		{
			"buffer":0,
			"byteLength":1956864,
			"byteOffset":5870592,
			"target":34962
		},
		{
			"buffer":0,
			"byteLength":4423680,
			"byteOffset":7827456,
			"target":34963
		},
		{
			"buffer":0,
			"byteLength":5004,
			"byteOffset":12251136,
			"target":34962
		},
		{
			"buffer":0,
			"byteLength":5004,
			"byteOffset":12256140,
			"target":34962
		},
		{
			"buffer":0,
			"byteLength":3336,
			"byteOffset":12261144,
			"target":34962
		},
		{
			"buffer":0,
			"byteLength":4032,
			"byteOffset":12264480,
			"target":34963
		},
		{
			"buffer":0,
			"byteLength":13032,
			"byteOffset":12268512,
			"target":34962
		},
		{
			"buffer":0,
			"byteLength":13032,
			"byteOffset":12281544,
			"target":34962
		},
		{
			"buffer":0,
			"byteLength":8688,
			"byteOffset":12294576,
			"target":34962
		},
		{
			"buffer":0,
			"byteLength":8448,
			"byteOffset":12303264,
			"target":34963
		}
	],
	"buffers":[
		{
			"byteLength":12311712,
			"uri":"pill.bin"
		}
	]
}
