{
	"asset":{
		"generator":"Khronos glTF Blender I/O v4.0.44",
		"version":"2.0"
	},
	"scene":0,
	"scenes":[
		{
			"name":"Scene",
			"nodes":[
				0,
				1
			]
		}
	],
	"nodes":[
		{
			"mesh":0,
			"name":"Cube.001"
		},
		{
			"mesh":1,
			"name":"Cube.006"
		}
	],
	"materials":[
		{
			"doubleSided":true,
			"name":"Material.001",
			"pbrMetallicRoughness":{
				"baseColorFactor":[
					0,
					0,
					0,
					1
				],
				"metallicFactor":0,
				"roughnessFactor":0.8227273225784302
			}
		},
		{
			"doubleSided":true,
			"name":"Material.006",
			"pbrMetallicRoughness":{
				"baseColorFactor":[
					0.800000011920929,
					0.800000011920929,
					0.800000011920929,
					1
				],
				"metallicFactor":0,
				"roughnessFactor":0.5
			}
		},
		{
			"doubleSided":true,
			"name":"Material",
			"pbrMetallicRoughness":{
				"baseColorFactor":[
					0.6376070976257324,
					0.47352316975593567,
					0.3515370190143585,
					1
				],
				"metallicFactor":0.5272727012634277,
				"roughnessFactor":0
			}
		},
		{
			"doubleSided":true,
			"name":"Material.005",
			"pbrMetallicRoughness":{
				"baseColorFactor":[
					0,
					0,
					0,
					1
				],
				"metallicFactor":0,
				"roughnessFactor":0.5
			}
		},
		{
			"doubleSided":true,
			"name":"Material.004",
			"pbrMetallicRoughness":{
				"baseColorFactor":[
					0.03733547776937485,
					0.03733547776937485,
					0.03733547776937485,
					1
				],
				"metallicFactor":0.5527272820472717,
				"roughnessFactor":0.24181818962097168
			}
		}
	],
	"meshes":[
		{
			"name":"Mesh",
			"primitives":[
				{
					"attributes":{
						"POSITION":0,
						"NORMAL":1,
						"TEXCOORD_0":2
					},
					"indices":3,
					"material":0
				},
				{
					"attributes":{
						"POSITION":4,
						"NORMAL":5,
						"TEXCOORD_0":6
					},
					"indices":7,
					"material":1
				}
			]
		},
		{
			"name":"Cube.008",
			"primitives":[
				{
					"attributes":{
						"POSITION":8,
						"NORMAL":9,
						"TEXCOORD_0":10
					},
					"indices":11,
					"material":0
				},
				{
					"attributes":{
						"POSITION":12,
						"NORMAL":13,
						"TEXCOORD_0":14
					},
					"indices":15,
					"material":2
				},
				{
					"attributes":{
						"POSITION":16,
						"NORMAL":17,
						"TEXCOORD_0":18
					},
					"indices":19,
					"material":3
				},
				{
					"attributes":{
						"POSITION":20,
						"NORMAL":21,
						"TEXCOORD_0":22
					},
					"indices":23,
					"material":4
				}
			]
		}
	],
	"accessors":[
		{
			"bufferView":0,
			"componentType":5126,
			"count":41577,
			"max":[
				0.7856186032295227,
				-0.37733274698257446,
				1.442792296409607
			],
			"min":[
				-0.7856187224388123,
				-0.9517874121665955,
				-1.0318585634231567
			],
			"type":"VEC3"
		},
		{
			"bufferView":1,
			"componentType":5126,
			"count":41577,
			"type":"VEC3"
		},
		{
			"bufferView":2,
			"componentType":5126,
			"count":41577,
			"type":"VEC2"
		},
		{
			"bufferView":3,
			"componentType":5123,
			"count":225216,
			"type":"SCALAR"
		},
		{
			"bufferView":4,
			"componentType":5126,
			"count":711,
			"max":[
				0.2217104434967041,
				-0.4455567002296448,
				-0.30060672760009766
			],
			"min":[
				-0.2217104434967041,
				-0.5696766376495361,
				-0.7483700513839722
			],
			"type":"VEC3"
		},
		{
			"bufferView":5,
			"componentType":5126,
			"count":711,
			"type":"VEC3"
		},
		{
			"bufferView":6,
			"componentType":5126,
			"count":711,
			"type":"VEC2"
		},
		{
			"bufferView":7,
			"componentType":5123,
			"count":3504,
			"type":"SCALAR"
		},
		{
			"bufferView":8,
			"componentType":5126,
			"count":861757,
			"max":[
				0.7607564330101013,
				0.4102846086025238,
				1.5735328197479248
			],
			"min":[
				-0.7607564330101013,
				-0.6715787649154663,
				-1.0982199907302856
			],
			"type":"VEC3"
		},
		{
			"bufferView":9,
			"componentType":5126,
			"count":861757,
			"type":"VEC3"
		},
		{
			"bufferView":10,
			"componentType":5126,
			"count":861757,
			"type":"VEC2"
		},
		{
			"bufferView":11,
			"componentType":5125,
			"count":4832016,
			"type":"SCALAR"
		},
		{
			"bufferView":12,
			"componentType":5126,
			"count":8559,
			"max":[
				0.7447025179862976,
				0.406750351190567,
				1.5730183124542236
			],
			"min":[
				-0.7447025179862976,
				-0.15115611255168915,
				-1.0999432802200317
			],
			"type":"VEC3"
		},
		{
			"bufferView":13,
			"componentType":5126,
			"count":8559,
			"type":"VEC3"
		},
		{
			"bufferView":14,
			"componentType":5126,
			"count":8559,
			"type":"VEC2"
		},
		{
			"bufferView":15,
			"componentType":5123,
			"count":41376,
			"type":"SCALAR"
		},
		{
			"bufferView":16,
			"componentType":5126,
			"count":2032,
			"max":[
				0.06543472409248352,
				-0.07081200927495956,
				1.5442132949829102
			],
			"min":[
				-0.06543472409248352,
				-0.12979312241077423,
				1.544212818145752
			],
			"type":"VEC3"
		},
		{
			"bufferView":17,
			"componentType":5126,
			"count":2032,
			"type":"VEC3"
		},
		{
			"bufferView":18,
			"componentType":5126,
			"count":2032,
			"type":"VEC2"
		},
		{
			"bufferView":19,
			"componentType":5123,
			"count":5184,
			"type":"SCALAR"
		},
		{
			"bufferView":20,
			"componentType":5126,
			"count":3920,
			"max":[
				0.047056734561920166,
				-0.0784575566649437,
				1.5497422218322754
			],
			"min":[
				-0.04705673083662987,
				-0.10058300942182541,
				1.5270578861236572
			],
			"type":"VEC3"
		},
		{
			"bufferView":21,
			"componentType":5126,
			"count":3920,
			"type":"VEC3"
		},
		{
			"bufferView":22,
			"componentType":5126,
			"count":3920,
			"type":"VEC2"
		},
		{
			"bufferView":23,
			"componentType":5123,
			"count":18048,
			"type":"SCALAR"
		}
	],
	"bufferViews":[
		{
			"buffer":0,
			"byteLength":498924,
			"byteOffset":0,
			"target":34962
		},
		{
			"buffer":0,
			"byteLength":498924,
			"byteOffset":498924,
			"target":34962
		},
		{
			"buffer":0,
			"byteLength":332616,
			"byteOffset":997848,
			"target":34962
		},
		{
			"buffer":0,
			"byteLength":450432,
			"byteOffset":1330464,
			"target":34963
		},
		{
			"buffer":0,
			"byteLength":8532,
			"byteOffset":1780896,
			"target":34962
		},
		{
			"buffer":0,
			"byteLength":8532,
			"byteOffset":1789428,
			"target":34962
		},
		{
			"buffer":0,
			"byteLength":5688,
			"byteOffset":1797960,
			"target":34962
		},
		{
			"buffer":0,
			"byteLength":7008,
			"byteOffset":1803648,
			"target":34963
		},
		{
			"buffer":0,
			"byteLength":10341084,
			"byteOffset":1810656,
			"target":34962
		},
		{
			"buffer":0,
			"byteLength":10341084,
			"byteOffset":12151740,
			"target":34962
		},
		{
			"buffer":0,
			"byteLength":6894056,
			"byteOffset":22492824,
			"target":34962
		},
		{
			"buffer":0,
			"byteLength":19328064,
			"byteOffset":29386880,
			"target":34963
		},
		{
			"buffer":0,
			"byteLength":102708,
			"byteOffset":48714944,
			"target":34962
		},
		{
			"buffer":0,
			"byteLength":102708,
			"byteOffset":48817652,
			"target":34962
		},
		{
			"buffer":0,
			"byteLength":68472,
			"byteOffset":48920360,
			"target":34962
		},
		{
			"buffer":0,
			"byteLength":82752,
			"byteOffset":48988832,
			"target":34963
		},
		{
			"buffer":0,
			"byteLength":24384,
			"byteOffset":49071584,
			"target":34962
		},
		{
			"buffer":0,
			"byteLength":24384,
			"byteOffset":49095968,
			"target":34962
		},
		{
			"buffer":0,
			"byteLength":16256,
			"byteOffset":49120352,
			"target":34962
		},
		{
			"buffer":0,
			"byteLength":10368,
			"byteOffset":49136608,
			"target":34963
		},
		{
			"buffer":0,
			"byteLength":47040,
			"byteOffset":49146976,
			"target":34962
		},
		{
			"buffer":0,
			"byteLength":47040,
			"byteOffset":49194016,
			"target":34962
		},
		{
			"buffer":0,
			"byteLength":31360,
			"byteOffset":49241056,
			"target":34962
		},
		{
			"buffer":0,
			"byteLength":36096,
			"byteOffset":49272416,
			"target":34963
		}
	],
	"buffers":[
		{
			"byteLength":49308512,
			"uri":"socheck.bin"
		}
	]
}
